# xmcd CD database file
#
# Track frame offsets:
#	150
#	12891
#	28121
#	40660
#	63753
#	74884
#	88530
#	107930
#	122311
#	137832
#	154989
#	166046
#	179137
#
# Disc length: 2608 seconds
#
# Revision: 0
# Processed by: cddbd v1.5.2PL0 Copyright (c) Steve Scherf et al.
# Submitted via: CDex 1.51
#
DISCID=ae0a2e0d
DTITLE=Mahalia - Love and compromise
DYEAR=2018
DGENRE=Jazz
TTITLE0=Hide out
TTITLE1=I wish I missed my ex
TTITLE2=Simmer (feat Burna Boy)
TTITLE3=Good company (explicit)
TTITLE4=What am I
TTITLE5=Regular people (feat Hamzaa and Lucky Daye)
TTITLE6=Karma (explicit)
TTITLE7=He's mine
TTITLE8=What you did (feat Ella Mai)
TTITLE9=Do not disturb
TTITLE10=Richie
TTITLE11=Consistency
TTITLE12=Square 1
EXTD=YEAR: 2018
EXTT0=
EXTT1=
EXTT2=
EXTT3=
EXTT4=
EXTT5=
EXTT6=
EXTT7=
EXTT8=
EXTT9=
EXTT10=
EXTT11=
EXTT12=
PLAYORDER=
